<?xml version="1.0" standalone="no"?>
<!DOCTYPE svg PUBLIC "-//W3C//DTD SVG 20010904//EN"
 "http://www.w3.org/TR/2001/REC-SVG-20010904/DTD/svg10.dtd">
<svg version="1.0" xmlns="http://www.w3.org/2000/svg"
 width="1024.000000pt" height="1024.000000pt" viewBox="0 0 1024.000000 1024.000000"
 preserveAspectRatio="xMidYMid meet">

<g transform="translate(0.000000,1024.000000) scale(0.100000,-0.100000)"
fill="#000000" stroke="none">
<path d="M975 10220 c-292 -53 -505 -173 -697 -395 -108 -123 -194 -285 -233
-433 -47 -183 -45 -3 -45 -4262 0 -4362 -4 -4092 56 -4299 54 -183 132 -317
268 -459 187 -194 372 -295 632 -347 l126 -25 4025 0 c4015 0 4025 0 4141 21
126 22 260 63 344 105 154 77 335 231 434 370 57 80 138 249 163 344 54 198
51 -49 51 4302 0 4331 3 4079 -49 4258 -106 372 -410 681 -772 784 -211 60
114 56 -4307 55 -3847 -1 -4042 -2 -4137 -19z m4407 -670 c773 -53 1514 -303
2148 -725 748 -498 1322 -1184 1678 -2005 179 -414 296 -900 333 -1380 15
-199 6 -658 -16 -840 -124 -1021 -541 -1900 -1240 -2619 -509 -523 -1116 -906
-1793 -1131 -799 -266 -1633 -300 -2448 -100 -570 140 -1123 403 -1610 765
-387 288 -792 718 -1059 1125 -811 1236 -960 2814 -393 4165 318 758 848 1422
1531 1919 299 218 707 435 1057 563 577 212 1209 304 1812 263z"/>
<path d="M4935 8594 c-364 -23 -652 -79 -978 -191 -942 -323 -1715 -1055
-2097 -1984 -128 -312 -209 -635 -246 -982 -20 -189 -14 -599 11 -782 107
-785 455 -1485 1021 -2051 527 -527 1203 -872 1922 -979 368 -54 795 -49 1153
16 450 80 899 262 1289 522 511 340 937 823 1214 1374 369 738 465 1543 280
2353 -72 314 -196 631 -362 925 -255 453 -664 893 -1107 1191 -477 320 -1031
519 -1600 573 -125 12 -410 20 -500 15z m-540 -1623 c28 -9 415 -235 860 -502
446 -267 1034 -620 1308 -783 282 -168 512 -313 532 -333 74 -76 112 -202 95
-310 -13 -75 -59 -168 -107 -215 -21 -20 -139 -96 -263 -169 -124 -72 -637
-378 -1140 -679 -1287 -769 -1248 -746 -1314 -765 -171 -50 -356 37 -439 204
l-32 66 -3 1589 c-3 1763 -7 1646 63 1752 97 149 264 204 440 145z"/>
</g>
</svg>
